<?xml version="1.0" encoding="UTF-8" standalone="no"?>
<!-- Created with Inkscape (http://www.inkscape.org/) -->

<svg
   xmlns:dc="http://purl.org/dc/elements/1.1/"
   xmlns:cc="http://creativecommons.org/ns#"
   xmlns:rdf="http://www.w3.org/1999/02/22-rdf-syntax-ns#"
   xmlns:svg="http://www.w3.org/2000/svg"
   xmlns="http://www.w3.org/2000/svg"
   xmlns:sodipodi="http://sodipodi.sourceforge.net/DTD/sodipodi-0.dtd"
   xmlns:inkscape="http://www.inkscape.org/namespaces/inkscape"
   id="svg2"
   version="1.1"
   inkscape:version="0.91 r13725"
   width="640"
   height="640"
   viewBox="0 0 640 640"
   sodipodi:docname="favicon.svg">
  <metadata
     id="metadata8">
    <rdf:RDF>
      <cc:Work
         rdf:about="">
        <dc:format>image/svg+xml</dc:format>
        <dc:type
           rdf:resource="http://purl.org/dc/dcmitype/StillImage" />
        <dc:title></dc:title>
      </cc:Work>
    </rdf:RDF>
  </metadata>
  <defs
     id="defs6" />
  <sodipodi:namedview
     pagecolor="#ffffff"
     bordercolor="#666666"
     borderopacity="1"
     objecttolerance="10"
     gridtolerance="10"
     guidetolerance="10"
     inkscape:pageopacity="0"
     inkscape:pageshadow="2"
     inkscape:window-width="1920"
     inkscape:window-height="996"
     id="namedview4"
     showgrid="false"
     inkscape:zoom="0.7375"
     inkscape:cx="189.99813"
     inkscape:cy="174.08936"
     inkscape:window-x="0"
     inkscape:window-y="27"
     inkscape:window-maximized="1"
     inkscape:current-layer="svg2" />
  <path
     style="fill:#ffffff;fill-opacity:1"
     d="m 122.7855,597.81908 c -35.839747,-7.14131 -68.306531,-34.32839 -82.083788,-68.73544 -5.520273,-13.78623 -7.968656,-26.69685 -7.968656,-42.01968 0,-30.76367 11.219283,-57.74879 33.111344,-79.64084 21.892061,-21.89207 48.87716,-33.11135 79.64083,-33.11135 70.83953,0 124.18712,64.69227 110.84628,134.41848 -4.16814,21.78495 -14.71085,41.27104 -31.3099,57.8701 -22.42832,22.42831 -49.16151,33.39737 -80.64794,33.09115 -7.04916,-0.0685 -16.76383,-0.91114 -21.58817,-1.87242 z m 39.22582,-45.13493 c 4.28889,-1.11712 11.24257,-3.86706 15.45262,-6.11101 9.38082,-4.99991 23.46932,-19.3152 28.20332,-28.65729 13.45479,-26.55173 8.50524,-57.24786 -12.64041,-78.39352 -26.92932,-26.92934 -68.15391,-26.92934 -95.083245,0 -26.929318,26.92934 -26.929318,68.15393 0,95.08326 17.156465,17.15647 41.372845,23.98982 64.067715,18.07856 z m 300.35725,-39.76084 c -35.83977,-7.14131 -68.30656,-34.32838 -82.08382,-68.73544 -5.52027,-13.78622 -7.96865,-26.69684 -7.96865,-42.01968 0,-30.76367 11.21929,-57.74878 33.11136,-79.64084 21.89205,-21.89207 48.87717,-33.11135 79.64084,-33.11135 70.83954,0 124.18712,64.69227 110.84629,134.41848 -4.16814,21.78496 -14.71086,41.27104 -31.3099,57.8701 -22.42832,22.42831 -49.1615,33.39737 -80.64795,33.09115 -7.04916,-0.0686 -16.76383,-0.91114 -21.58816,-1.87242 z m 39.22581,-45.13493 c 4.2889,-1.11712 11.24259,-3.86706 15.45264,-6.11101 9.38082,-4.99991 23.46931,-19.31519 28.20331,-28.65728 13.4548,-26.55174 8.50524,-57.24787 -12.6404,-78.39353 -26.92934,-26.92934 -68.15393,-26.92934 -95.08326,0 -26.92934,26.92934 -26.92934,68.15393 0,95.08326 17.15647,17.15647 41.37285,23.98982 64.06771,18.07856 z M 301.25483,450.16225 c -24.24176,-71.46321 -27.83336,-81.3852 -29.85618,-82.47925 -1.03731,-0.56104 -28.15065,-8.59644 -60.25186,-17.85645 -37.03133,-10.68216 -61.18825,-18.34029 -66.08727,-20.95072 -24.8639,-13.24868 -34.27567,-46.10997 -20.95564,-73.16682 5.20431,-10.57145 37.40511,-50.15659 86.08625,-105.82776 24.67474,-28.21772 28.42719,-30.96179 42.07805,-30.77057 4.37743,0.0612 10.06529,1.01171 12.63969,2.11199 2.57439,1.10028 26.02099,17.9837 52.10357,37.51873 l 47.42285,35.51819 47.10737,4.96456 c 25.90903,2.73049 47.31965,5.18837 47.57916,5.46194 0.73168,0.77133 -5.1203,53.91785 -6.03643,54.82161 -1.02776,1.01388 -113.55704,-10.84227 -115.77321,-12.19794 -0.90349,-0.55268 -13.40254,-9.90039 -27.77566,-20.77265 -14.37313,-10.87226 -26.34526,-19.52765 -26.60473,-19.2342 -9.9104,11.2082 -57.6147,70.86471 -57.09515,71.4002 0.40775,0.4203 21.44497,11.21033 46.74938,23.97785 l 46.00797,23.21369 25.50954,74.94704 c 14.03023,41.22088 25.2981,75.54514 25.0397,76.27613 -0.2584,0.731 -12.12753,5.31601 -26.37582,10.18891 l -25.90601,8.85982 -15.60557,-46.0043 z M 69.211706,235.05907 c -9.900725,-3.95261 -20.595055,-13.01152 -25.203431,-21.3492 -3.603804,-6.52019 -3.976571,-8.32697 -3.948629,-19.13836 0.02632,-10.19932 0.562912,-13.08415 3.683107,-19.8031 4.112001,-8.85464 35.315291,-48.47167 48.657722,-61.77788 20.607355,-20.55146 51.261975,-28.00455 78.354405,-19.050407 10.2943,3.402304 26.79771,13.389257 29.55799,17.886877 1.06244,1.73115 -7.24452,12.9996 -42.53769,57.70259 -24.12188,30.55324 -45.57811,56.81549 -47.68049,58.36058 -12.880725,9.46631 -28.338669,12.17689 -40.882984,7.1689 z M 330.79474,146.02768 c -15.97753,-3.76006 -30.61666,-15.65847 -38.16288,-31.01805 -4.34491,-8.84367 -4.54828,-9.91124 -4.54828,-23.876947 0,-13.681298 0.27108,-15.191604 4.22486,-23.537813 5.87146,-12.394336 14.53296,-21.218243 26.75891,-27.260636 9.72376,-4.805747 10.4058,-4.942281 24.68817,-4.942281 14.04405,0 15.0941,0.199441 23.94574,4.54828 34.9647,17.178277 43.05782,61.484307 16.38295,89.689037 -13.52906,14.30498 -34.61412,20.79333 -53.28947,16.39841 z"
     id="path4138"
     inkscape:connector-curvature="0" />
</svg>
