<?xml version="1.0" encoding="UTF-8" standalone="no"?>
<!-- Created with Inkscape (http://www.inkscape.org/) -->

<svg
   xmlns:dc="http://purl.org/dc/elements/1.1/"
   xmlns:cc="http://creativecommons.org/ns#"
   xmlns:rdf="http://www.w3.org/1999/02/22-rdf-syntax-ns#"
   xmlns:svg="http://www.w3.org/2000/svg"
   xmlns="http://www.w3.org/2000/svg"
   xmlns:sodipodi="http://sodipodi.sourceforge.net/DTD/sodipodi-0.dtd"
   xmlns:inkscape="http://www.inkscape.org/namespaces/inkscape"
   id="svg2"
   version="1.1"
   inkscape:version="0.91 r13725"
   width="45"
   height="45"
   viewBox="0 0 45 45"
   sodipodi:docname="rider.svg">
  <metadata
     id="metadata8">
    <rdf:RDF>
      <cc:Work
         rdf:about="">
        <dc:format>image/svg+xml</dc:format>
        <dc:type
           rdf:resource="http://purl.org/dc/dcmitype/StillImage" />
        <dc:title></dc:title>
      </cc:Work>
    </rdf:RDF>
  </metadata>
  <defs
     id="defs6" />
  <sodipodi:namedview
     pagecolor="#ffffff"
     bordercolor="#666666"
     borderopacity="1"
     objecttolerance="10"
     gridtolerance="10"
     guidetolerance="10"
     inkscape:pageopacity="0"
     inkscape:pageshadow="2"
     inkscape:window-width="1920"
     inkscape:window-height="996"
     id="namedview4"
     showgrid="false"
     inkscape:zoom="5.9"
     inkscape:cx="-30.729848"
     inkscape:cy="3.4374853"
     inkscape:window-x="0"
     inkscape:window-y="27"
     inkscape:window-maximized="1"
     inkscape:current-layer="svg2" />
  <path
     style="fill:#000000;fill-opacity:1"
     d="M 5.8141793,43.850784 C 3.3980254,42.740187 1.5590713,40.267706 1.1648635,37.599759 1.0069129,36.530765 1.0516056,35.575614 1.3103241,34.491066 1.8297518,32.31362 3.0794805,30.593048 4.9986325,29.413169 c 1.9191519,-1.179881 4.0185843,-1.518351 6.1960325,-0.998923 5.01401,1.196088 7.697649,6.675742 5.576096,11.385699 -0.662848,1.471558 -1.738071,2.672771 -3.193215,3.567384 -1.966163,1.208782 -4.0435412,1.533794 -6.2669744,0.980489 -0.4977822,-0.123869 -1.171157,-0.347539 -1.4963923,-0.497034 z m 3.5384775,-2.532336 c 0.322427,-0.0067 0.8610402,-0.08388 1.1969132,-0.171627 0.748394,-0.195503 1.987282,-0.97086 2.480091,-1.55216 1.400639,-1.652151 1.568598,-3.908388 0.428947,-5.762107 -1.451366,-2.360741 -4.3692352,-3.056797 -6.7299775,-1.60543 -2.3607404,1.451367 -3.0567956,4.369236 -1.6054307,6.729977 0.9246538,1.504009 2.5233081,2.396555 4.229457,2.361347 z m 21.9305752,2.257107 c -2.416156,-1.110596 -4.255111,-3.583077 -4.649318,-6.251025 -0.15795,-1.068993 -0.113258,-2.024144 0.145461,-3.108692 0.519429,-2.177447 1.769157,-3.898017 3.68831,-5.077897 1.919151,-1.179881 4.018585,-1.518351 6.196033,-0.998923 5.01401,1.196089 7.697647,6.675742 5.576096,11.385698 -0.662847,1.47156 -1.738071,2.672773 -3.193215,3.567385 -1.966162,1.208783 -4.043539,1.533795 -6.266975,0.980489 -0.49778,-0.123877 -1.171157,-0.347539 -1.496391,-0.497035 z m 3.538476,-2.532336 c 0.32243,-0.0067 0.861042,-0.08388 1.196916,-0.171626 0.748394,-0.195503 1.987281,-0.970859 2.480089,-1.55216 1.400641,-1.652149 1.568599,-3.908387 0.428948,-5.762107 -1.451367,-2.360742 -4.369236,-3.056796 -6.729977,-1.605429 -2.360742,1.451365 -3.056798,4.369235 -1.605431,6.729976 0.924654,1.50401 2.523307,2.396554 4.229455,2.361346 z M 20.939316,36.413018 c -0.50921,-5.467463 -0.595896,-6.230382 -0.720597,-6.341973 -0.06395,-0.05722 -1.847352,-1.083764 -3.963119,-2.281197 -2.440709,-1.381337 -4.021228,-2.331255 -4.323904,-2.598738 -1.536167,-1.357553 -1.647484,-3.842382 -0.247855,-5.532559 0.546853,-0.660374 3.494396,-2.91851 7.880017,-6.036951 2.222914,-1.580626 2.534844,-1.711493 3.497821,-1.46747 0.308801,0.07824 0.695338,0.241556 0.858975,0.3629 0.163638,0.121346 1.538116,1.712234 3.054399,3.535311 l 2.756875,3.314681 3.250429,1.146774 c 1.787733,0.630725 3.261674,1.1662 3.275422,1.189945 0.03876,0.06695 -1.272788,3.729842 -1.352891,3.778342 -0.08986,0.05441 -7.854483,-2.684765 -7.988452,-2.818138 -0.05462,-0.05437 -0.781468,-0.927042 -1.615222,-1.939262 -0.833756,-1.01222 -1.534998,-1.826991 -1.558318,-1.810599 -0.890702,0.625982 -5.274473,4.042997 -5.24674,4.089671 0.02176,0.03664 1.328591,1.155553 2.904059,2.486487 l 2.864485,2.419882 0.540121,5.735453 c 0.297064,3.1545 0.515055,5.774217 0.484423,5.821595 -0.03063,0.04738 -0.948142,0.171498 -2.03891,0.275827 l -1.983216,0.189688 -0.327802,-3.519669 z M 8.1472457,17.270126 c -0.6340334,-0.446934 -1.2380223,-1.26869 -1.4234249,-1.93664 -0.1449864,-0.522346 -0.1408642,-0.656524 0.043659,-1.42128 0.1740732,-0.721462 0.2607623,-0.916588 0.5950552,-1.339473 0.4405525,-0.5573 3.3180283,-2.8345356 4.4870723,-3.5510673 1.805585,-1.1066847 4.101156,-1.1166263 5.867568,-0.025413 0.671182,0.4146277 1.670666,1.4001543 1.790099,1.7651003 0.04597,0.14047 -0.732258,0.79779 -3.985089,3.365954 -2.223217,1.755267 -4.18531,3.251827 -4.360205,3.325692 -1.071528,0.452539 -2.2114061,0.383394 -3.0147335,-0.182874 z M 28.165297,15.385191 c -1.0674,-0.53591 -1.902657,-1.62525 -2.177439,-2.839813 -0.158211,-0.699315 -0.15458,-0.778311 0.08123,-1.766801 0.231003,-0.9683605 0.275689,-1.0706825 0.696459,-1.5946685 0.624852,-0.7781323 1.386899,-1.2564426 2.354272,-1.4776927 0.769388,-0.1759697 0.81997,-0.1741183 1.830873,0.067035 0.994034,0.2371266 1.06499,0.2689723 1.61808,0.7262376 2.184749,1.8062356 2.009495,5.0788576 -0.354771,6.6247926 -1.199115,0.784073 -2.801065,0.887307 -4.048697,0.260912 z"
     id="path4138"
     inkscape:connector-curvature="0" />
</svg>
